<svg width="52" height="52" viewBox="0 0 52 52" fill="none" xmlns="http://www.w3.org/2000/svg">
<path d="M44.662 23.8877C44.6467 22.5166 44.6417 21.1354 44.6366 19.7592H40.5335C40.5182 21.1303 40.5081 22.5065 40.4979 23.8877C39.1167 23.8928 37.7456 23.903 36.3745 23.9182V28.0264C37.7456 28.0416 39.1268 28.0518 40.4979 28.067C40.5131 29.4381 40.5131 30.8143 40.5233 32.1854H44.6315C44.6366 30.8143 44.6467 29.4381 44.6569 28.0569C46.0381 28.0416 47.4092 28.0366 48.7803 28.0213V23.9131C47.4143 23.903 46.0331 23.903 44.662 23.8877ZM17.7479 23.908C17.7428 25.5483 17.7479 27.1936 17.753 28.8338C20.5053 28.9252 23.2628 28.8846 26.0151 28.9252C24.8014 35.0342 16.4987 37.0147 12.1061 33.0233C7.58658 29.5244 7.79986 21.8514 12.4971 18.6014C15.7827 15.9811 20.4495 16.626 23.735 18.8959C25.0249 17.7026 26.2335 16.4229 27.3963 15.1026C24.6643 12.9241 21.3128 11.3702 17.7479 11.5327C10.3034 11.2838 3.46314 17.8041 3.34127 25.2537C2.86392 31.3424 6.86549 37.3092 12.5124 39.4623C18.1389 41.6307 25.3549 40.153 28.9502 35.0951C31.3217 31.901 31.8346 27.7877 31.5553 23.9233C26.9495 23.8877 22.3487 23.8928 17.7479 23.908Z" fill="#F2F2F2"/>
</svg>
