<svg width="685" height="598" viewBox="0 0 685 598" fill="none" xmlns="http://www.w3.org/2000/svg">
<path d="M682.77 593.541H3.30978C2.11502 593.541 1.07956 594.457 0.999913 595.611C0.920263 596.925 1.95572 598 3.23013 598H682.77C684.004 598 685 597.005 685 595.771C685 594.536 684.004 593.541 682.77 593.541Z" fill="#064C91"/>
<path d="M246.961 95.1545C228.323 102.958 206.817 94.1591 199.012 75.5264C191.246 56.9334 200.047 35.4341 218.645 27.6306C237.284 19.8272 258.789 28.626 266.595 47.2587C274.401 65.8517 265.599 87.351 246.961 95.1545Z" fill="#FFCB83"/>
<path d="M246.603 94.2786C228.482 101.883 207.534 93.3231 199.927 75.1681C192.321 57.0529 200.883 36.111 219.044 28.5066C237.164 20.9022 258.112 29.4621 265.719 47.6171C273.326 65.7323 264.723 86.6742 246.603 94.2786Z" fill="#FFCB83"/>
<path d="M259.745 50.2846C265.958 65.1351 258.988 82.1753 244.134 88.3862C229.279 94.5972 212.233 87.6298 206.021 72.7793C199.808 57.9288 206.777 40.8886 221.632 34.6777C236.447 28.4668 253.532 35.474 259.745 50.2846Z" fill="white"/>
<path d="M243.496 86.8732C229.438 92.7656 213.229 86.1167 207.375 72.1023C201.481 58.0481 208.132 41.844 222.15 35.9914C236.208 30.099 252.417 36.7479 258.272 50.7623C264.166 64.7766 257.515 80.9808 243.496 86.8732Z" fill="white"/>
<path d="M210.202 69.2755L205.662 71.1866C204.906 71.5051 204.547 72.381 204.866 73.0976C205.184 73.8541 206.061 74.2124 206.778 73.8939L211.318 71.9828C212.074 71.6643 212.433 70.7884 212.114 70.0718C211.835 69.3153 210.959 68.957 210.202 69.2755Z" fill="#FFCB83"/>
<path d="M241.505 82.0956C240.748 82.4141 240.39 83.29 240.709 84.0066L242.62 88.5454C242.939 89.3019 243.815 89.6602 244.532 89.3417C245.289 89.0232 245.647 88.1473 245.328 87.4306L243.417 82.8919C243.098 82.1354 242.222 81.7771 241.505 82.0956Z" fill="#FFCB83"/>
<path d="M258.829 48.8912L254.289 50.8022C253.533 51.1207 253.174 51.9966 253.493 52.7133C253.811 53.4697 254.687 53.8281 255.404 53.5095L259.944 51.5985C260.701 51.28 261.06 50.4041 260.741 49.6874C260.462 48.931 259.586 48.6125 258.829 48.8912Z" fill="#FFCB83"/>
<path d="M221.115 33.4434C220.358 33.7619 219.999 34.6378 220.318 35.3545L222.23 39.8932C222.548 40.6497 223.424 41.008 224.141 40.6895C224.898 40.371 225.256 39.4951 224.938 38.7784L223.026 34.2397C222.708 33.4832 221.871 33.1647 221.115 33.4434Z" fill="#FFCB83"/>
<path d="M231.35 21.0615L231.748 15.2886C231.788 14.8108 232.186 14.4525 232.664 14.4923L239.315 14.97C239.793 15.0099 240.151 15.408 240.111 15.8858L239.713 21.6587C239.673 22.1365 239.275 22.4948 238.797 22.455L232.146 21.9772C231.668 21.9374 231.31 21.5393 231.35 21.0615Z" fill="#FFCB83"/>
<path d="M205.463 32.05L201.043 28.2677C200.684 27.9492 200.127 27.989 199.848 28.3474L195.547 33.4435C195.228 33.8018 195.268 34.3592 195.626 34.6379L200.047 38.4202C200.405 38.7387 200.963 38.6989 201.282 38.3406L205.583 33.2842C205.861 32.9259 205.822 32.3685 205.463 32.05Z" fill="#FFCB83"/>
<path d="M212.592 22.5744C212.154 22.7337 211.676 22.5346 211.477 22.1365L209.884 18.2746C209.725 17.8366 209.924 17.3589 210.322 17.1598L218.168 13.8553C218.606 13.696 219.084 13.8951 219.283 14.2932L220.876 18.1551C221.035 18.5931 220.836 19.0708 220.438 19.2699L212.592 22.5744Z" fill="#FFCB83"/>
<path d="M214.623 23.9679C210.8 24.2465 207.056 22.0966 205.463 18.3939C203.512 13.7358 205.702 8.36092 210.362 6.41006C215.021 4.45919 220.398 6.64894 222.349 11.3071C223.902 15.0496 222.827 19.23 219.92 21.7383L220.796 23.8086C224.779 20.743 226.372 15.2885 224.34 10.4312C221.991 4.69808 215.34 1.99075 209.565 4.37957C203.791 6.80819 201.082 13.4571 203.472 19.23C205.503 24.0873 210.521 26.7548 215.499 26.078L214.623 23.9679Z" fill="#FFCB83"/>
<path d="M218.367 26.9538C219.283 26.5556 220.199 26.2371 221.115 25.9186L218.805 20.3845L214.464 22.1761L216.774 27.6704C217.291 27.4315 217.849 27.1926 218.367 26.9538Z" fill="#FFCB83"/>
<path d="M235.292 60.3177C235.85 61.6713 235.213 63.2639 233.859 63.8213C232.505 64.3787 230.912 63.7416 230.354 62.388C229.796 61.0343 230.434 59.4418 231.788 58.8844C233.142 58.2872 234.735 58.964 235.292 60.3177Z" fill="#FFCB83"/>
<path d="M235.691 39.4155L233.779 61.4722C233.739 62.0296 233.222 62.4278 232.704 62.388C232.146 62.3481 231.748 61.8306 231.788 61.313C231.748 61.1936 231.589 62.1889 235.691 39.4155Z" fill="#FFCB83"/>
<path d="M252.218 72.2616L232.425 62.3082C231.907 62.0693 231.708 61.4323 231.987 60.9545C232.226 60.437 232.863 60.2379 233.341 60.5166C233.42 60.5564 232.584 60.0388 252.218 72.2616Z" fill="#FFCB83"/>
<path d="M233.819 60.9148C234.058 61.4722 233.779 62.1092 233.222 62.3481C232.664 62.587 232.027 62.3083 231.788 61.7509C231.549 61.1935 231.828 60.5565 232.385 60.3176C232.943 60.1186 233.58 60.3574 233.819 60.9148Z" fill="#FFCB83"/>
<path d="M512.875 264.163C512.596 263.845 512.198 263.725 511.799 263.845C509.848 264.362 506.343 263.606 504.631 262.969L502.759 253.612C504.113 252.378 507.06 250.308 509.051 250.029C509.45 249.989 509.808 249.711 509.928 249.313L512.317 242.226C512.437 241.828 512.357 241.429 512.038 241.111C510.605 239.678 509.529 236.254 509.211 234.462L516.34 228.172C518.092 228.729 521.357 230.242 522.592 231.834C522.831 232.153 523.269 232.312 523.667 232.233L530.995 230.759C531.394 230.68 531.712 230.361 531.832 229.963C532.349 228.012 534.779 225.385 536.173 224.19L545.213 227.216C545.611 229.008 545.93 232.591 545.173 234.422C545.014 234.781 545.093 235.219 545.372 235.537L550.311 241.151C550.589 241.469 550.988 241.589 551.386 241.469C553.337 240.952 556.842 241.708 558.554 242.345L560.426 251.701C559.072 252.936 556.125 255.006 554.134 255.285C553.735 255.324 553.377 255.603 553.258 256.001L550.868 263.088C550.749 263.486 550.828 263.884 551.147 264.203C552.581 265.636 553.656 269.06 553.974 270.852L546.846 277.142C545.093 276.585 541.828 275.072 540.593 273.479C540.354 273.161 539.916 273.002 539.518 273.081L532.19 274.554C531.792 274.634 531.473 274.953 531.354 275.351C530.836 277.302 528.407 279.929 527.013 281.124L517.972 278.098C517.574 276.306 517.255 272.723 518.012 270.892C518.171 270.533 518.092 270.095 517.813 269.777L512.875 264.163ZM533.425 261.854C538.522 260.819 541.788 255.882 540.752 250.786C539.717 245.69 534.779 242.425 529.681 243.46C524.583 244.495 521.318 249.432 522.353 254.528C523.389 259.584 528.327 262.889 533.425 261.854ZM534.619 267.746C542.943 266.074 548.359 257.952 546.686 249.591C545.014 241.27 536.889 235.856 528.526 237.528C520.163 239.2 514.786 247.322 516.459 255.683C518.132 264.044 526.256 269.458 534.619 267.746Z" fill="#FF6E53"/>
<path d="M573.529 297.567C573.608 297.248 573.847 297.009 574.166 296.969L579.98 295.815C580.299 295.735 580.617 295.855 580.817 296.133C581.772 297.407 584.361 298.562 585.755 299L591.41 294.023C591.131 292.59 590.295 289.883 589.18 288.768C588.941 288.529 588.861 288.21 588.981 287.892L590.853 282.278C590.972 281.96 591.211 281.761 591.53 281.721C593.083 281.522 595.433 279.85 596.508 278.894L594.994 271.489C593.64 271.011 590.853 270.374 589.299 270.812C588.981 270.891 588.662 270.812 588.423 270.573L584.481 266.114C584.281 265.875 584.202 265.517 584.321 265.238C584.919 263.765 584.64 260.938 584.361 259.505L577.193 257.116C576.077 258.071 574.166 260.142 573.767 261.695C573.688 262.013 573.449 262.252 573.13 262.292L567.316 263.446C566.997 263.526 566.679 263.407 566.479 263.128C565.524 261.854 562.935 260.699 561.541 260.261L555.886 265.238C556.165 266.671 557.001 269.379 558.116 270.493C558.355 270.732 558.435 271.051 558.315 271.369L556.443 276.983C556.324 277.301 556.085 277.501 555.766 277.54C554.213 277.739 551.864 279.412 550.788 280.367L552.302 287.772C553.656 288.25 556.443 288.887 557.997 288.449C558.315 288.37 558.634 288.449 558.873 288.688L562.816 293.147C563.015 293.386 563.094 293.745 562.975 294.023C562.377 295.496 562.656 298.323 562.935 299.756L570.104 302.145C571.219 301.229 573.13 299.119 573.529 297.567ZM575.56 288.648C570.542 289.644 565.683 286.419 564.648 281.402C563.652 276.386 566.878 271.529 571.896 270.493C576.914 269.498 581.772 272.723 582.808 277.739C583.804 282.796 580.538 287.653 575.56 288.648Z" fill="#FF6E53"/>
<path d="M164.244 197.873L157.792 195.445L152.137 199.386C151.5 199.824 150.624 199.347 150.664 198.55L150.982 191.662L145.486 187.482C144.849 187.004 145.048 186.009 145.805 185.81L152.456 183.978L154.726 177.449C154.965 176.693 156 176.573 156.398 177.25L160.182 183.023L167.072 183.182C167.868 183.182 168.266 184.098 167.788 184.735L163.487 190.11L165.479 196.719C165.678 197.475 164.961 198.152 164.244 197.873Z" fill="#65CEFE"/>
<path d="M190.847 127.642L187.343 118.206L178.342 120.914L174.479 111.757L165.558 113.27L161.536 106.899L158.31 108.93L163.686 117.45L172.129 116.017L176.152 125.532L184.993 122.865L188.179 131.425L190.847 127.642Z" fill="#65CEFE"/>
<path d="M532.509 167.695L523.707 162.877L518.649 170.76L509.768 166.381L503.994 173.348L496.785 171.158L495.71 174.821L505.308 177.728L510.764 171.158L520.043 175.697L524.982 167.934L532.987 172.313L532.509 167.695Z" fill="#65CEFE"/>
<path d="M311.837 19.1106L308.053 28.4668L316.496 32.5278L313.191 41.8839L320.758 46.781L319.443 54.1863L323.187 54.8632L324.979 44.9496L317.771 40.3312L321.235 30.5769L312.912 26.5955L316.337 18.1152L311.837 19.1106Z" fill="#C9EDF9"/>
<path d="M530.318 322.729L528.486 319.066L524.305 319.225L522.512 314.965L518.092 316.478L515.862 311.78L511.64 312.696L508.733 308.515L510.326 307.401L512.476 310.546L516.937 309.59L519.087 314.129L523.588 312.576L525.539 317.235L529.641 317.115L531.354 320.499L534.022 319.862L534.46 321.733L530.318 322.729Z" fill="#FF6E53"/>
<path d="M449.911 103.237L447.96 97.4239L456.96 93.2434L455.168 84.4048L461.381 80.1846L459.27 77.0393L450.907 82.6928L452.619 91.0537L443.26 95.4332L446.207 104.152L449.911 103.237Z" fill="#FF6E53"/>
<path d="M540.633 65.334C550.55 80.5029 537.049 101.564 519.367 98.419C516.181 97.8616 512.875 98.5783 510.047 100.33L500.29 106.342C497.582 108.014 494.197 107.297 492.524 104.67L488.781 98.9366C487.068 96.3487 487.626 92.7257 490.055 90.6554C498.896 83.0908 502.64 80.9409 503.835 74.6105C507.299 56.0574 530.717 50.165 540.633 65.334Z" fill="#FFCB83"/>
<path d="M517.336 73.655C517.136 72.8189 516.937 71.9032 516.858 70.9875C516.42 65.6922 520.522 63.8608 522.672 65.2145C524.066 66.0904 524.624 68.1209 523.827 70.0319C523.11 71.7439 521.557 73.0179 520.004 74.3716C520.84 77.3178 522.154 80.0251 523.946 82.4538C528.765 79.5474 532.23 81.1399 532.469 83.7676C532.628 85.4398 531.513 87.1916 529.88 87.9082C528.885 88.3462 526.376 88.9036 523.389 85.599C515.225 91.3322 504.591 99.8523 504.552 99.8921L503.198 98.0209C503.237 97.981 513.831 89.5406 521.955 83.8074C520.283 81.4982 518.968 78.9103 518.052 76.1234C508.773 84.2454 500.569 90.6554 500.29 90.8942L498.936 89.023C499.494 88.5452 507.419 82.3343 517.336 73.655ZM521.238 67.2052C520.522 66.9265 518.61 67.7227 519.367 71.8634C521.557 69.9921 522.194 69.156 521.238 67.2052ZM525.42 84.2852C526.615 85.5194 528.407 86.6342 529.602 85.3203C531.155 83.6084 528.925 82.3343 525.42 84.2852Z" fill="#EEFBFF"/>
<path d="M510.326 100.171C510.246 100.211 510.167 100.251 510.087 100.33L500.33 106.342C497.622 108.014 494.237 107.298 492.564 104.67L488.82 98.9367C487.108 96.3488 487.665 92.7258 490.095 90.6555C494.038 87.2713 496.945 85.0019 499.095 82.9316L510.326 100.171Z" fill="#65CEFE"/>
<path d="M66.5126 466.854C66.5126 466.854 66.194 465.302 66.1144 464.784C66.0347 464.187 65.9551 462.316 65.9551 462.316C65.9551 462.316 65.9551 455.826 66.433 455.866C66.9109 455.906 67.5481 457.02 67.6676 457.418C67.8269 457.817 68.026 458.255 68.1455 458.693C68.3048 459.091 68.703 459.33 69.2208 459.17C69.7385 459.011 69.4995 457.299 69.3402 456.742C68.7429 454.95 66.1542 450.451 65.9153 449.934C65.6365 449.336 67.7074 438.109 68.1056 434.167C68.942 427.797 70.1367 421.268 70.2562 420.591L81.6463 395.429L74.0396 387.665C74.0396 387.665 61.0167 415.375 60.5388 416.848C60.2999 417.525 59.4635 432.495 59.5034 432.495C59.5432 439.901 59.6229 446.39 59.6229 447.664C59.6229 447.664 58.5476 451.407 57.7112 453.716C56.8749 456.065 57.074 458.533 56.9546 459.21C56.9546 459.33 56.3572 461.679 56.7554 464.625C57.1139 467.173 57.9502 464.585 57.9502 464.585C57.9502 464.585 58.1493 459.767 58.5476 459.847C58.8263 459.927 58.5476 462.554 58.906 465.341C58.9856 466.058 59.1051 466.775 59.1848 467.452C59.4237 469.163 60.5388 469.522 60.5787 467.651C60.5787 467.014 60.5787 465.939 60.499 465.142C60.3795 464.306 60.5388 463.51 60.5388 462.793C60.5388 461.36 60.5388 460.325 60.6185 460.365C60.6981 460.405 60.8973 460.126 61.0167 460.882C61.176 461.798 61.0167 463.828 61.3353 465.182C61.5345 465.939 61.7734 467.531 61.7734 467.531C61.7734 467.531 62.5301 470.079 62.6496 470.079C63.4859 470.039 63.4859 468.049 63.1275 467.053C63.2071 466.297 62.8885 464.625 62.8885 464.625C62.8885 464.625 62.9682 461.042 63.4859 461.042C63.8842 461.042 65.3577 469.601 66.194 469.482C66.8312 469.442 66.5126 466.854 66.5126 466.854Z" fill="#F7A491"/>
<path d="M76.9867 410C76.9867 410 72.2474 409.164 69.7783 408.248C66.4329 407.014 64.2426 405.899 64.2426 405.899C64.2426 405.899 67.9065 390.213 72.4864 380.698C74.3582 376.756 76.3096 374.845 78.9381 374.407C78.9381 374.407 84.5535 378.11 84.3544 386.988C84.2747 389.058 76.9867 410 76.9867 410Z" fill="#E74A60"/>
<path d="M91.5229 462.714L97.656 519.01C97.656 519.01 94.6691 530.914 95.0275 534.298C95.386 537.683 101.678 582.035 101.678 582.035L101.4 584.543V591.909H124.737C124.737 591.909 119.799 589.639 112.829 585.101C112.312 584.782 111.117 583.707 110.838 581.597C109.006 567.941 112.63 522.315 112.63 522.315L115.498 462.953L91.5229 462.714Z" fill="#F7A491"/>
<path d="M72.7253 474.578C71.4111 474.936 69.38 523.31 68.2648 525.46C61.3352 539.076 59.7024 580.402 59.7024 580.402L57.6713 586.295L55.5208 593.501C55.5208 593.501 62.4504 595.412 66.0745 593.342L65.6762 586.215L65.3178 579.686L82.8011 528.167L92.3592 475.613L72.7253 474.578Z" fill="#F7A491"/>
<path d="M107.493 380.777C104.665 376.796 93.0363 365.329 91.7618 365.369C87.9784 365.449 75.6326 365.449 73.2032 366.723V369.43C73.2829 381.534 74.7963 393.557 77.8628 405.262C79.9735 413.424 82.0046 422.143 81.7259 425.249L81.7657 425.289C88.9342 432.415 100.205 431.818 106.736 424.054C106.736 424.054 106.696 415.375 107.732 407.492C109.365 395.11 114.502 390.651 107.493 380.777Z" fill="#FF6E53"/>
<path d="M87.9784 353.067C87.9784 353.067 88.297 361.149 87.6199 364.175C86.9031 367.241 85.9871 367.479 92.0406 368.395C94.4301 368.753 96.7001 369.311 96.7001 369.311C96.7001 369.311 96.0629 364.812 95.9833 362.941C95.824 359.835 96.7001 350.161 96.7001 350.161L87.9784 353.067Z" fill="#F7A491"/>
<path d="M92.5584 357.088C93.793 357.765 94.9479 358.203 96.0232 358.362C96.2223 354.54 96.6206 350.2 96.6206 350.2L88.3369 352.948C89.3325 354.58 90.6866 356.013 92.5584 357.088Z" fill="#F47458"/>
<path d="M89.8901 330.453C89.8901 330.453 86.4253 331.687 84.5137 335.469C82.602 339.252 81.8852 349.962 89.4122 354.142C93.1159 356.212 97.4171 356.61 99.4482 354.779C101.519 352.908 101.24 348.807 101.041 345.383C100.643 338.615 99.1295 328.303 89.8901 330.453Z" fill="#F7A491"/>
<path d="M84.3543 343.87C84.7923 345.662 84.195 347.374 83.0799 347.732C81.9647 348.09 80.6903 346.896 80.2523 345.104C79.8142 343.313 80.4116 341.601 81.5267 341.242C82.6418 340.924 83.9162 342.118 84.3543 343.87Z" fill="#F7A491"/>
<path d="M65.716 586.215C62.53 587.688 59.105 586.773 57.751 586.295L55.5208 593.541C55.5208 593.541 62.4902 595.611 66.1143 593.541L65.716 586.215Z" fill="#E74A60"/>
<path d="M101.161 593.7H125.454C126.37 593.621 126.569 592.864 126.251 592.387C125.613 591.431 122.786 590.714 119.6 589.201C114.024 589.799 102.316 585.857 101.4 584.503C100.882 587.211 100.643 593.621 101.161 593.7Z" fill="#E74A60"/>
<path d="M149.907 399.131C150.385 398.494 151.938 395.27 151.938 395.27C151.938 395.27 153.571 389.775 153.212 389.855C153.013 389.895 152.336 390.691 151.54 392.323C151.062 393.319 150.504 395.11 150.026 395.986C149.15 397.539 148.154 398.176 148.393 397.579C148.553 397.141 149.19 396.782 149.708 395.867C151.022 393.637 152.137 389.974 151.659 390.014C151.221 390.094 149.947 392.602 148.593 394.553C147.995 395.429 146.283 396.464 145.168 397.181C145.168 396.703 145.327 396.225 145.407 395.986C145.526 395.548 147.477 393 146.721 392.682C145.964 392.363 141.384 397.897 141.384 397.897L139.512 401.122L139.353 401.242C139.353 401.242 116.454 410.2 115.697 409.961C113.905 409.403 107.732 391.567 107.732 391.567L94.908 393.876C94.7089 393.757 108.369 420.432 110.918 421.706C113.148 422.86 136.964 410.439 141.424 407.811C147.597 405.422 149.986 402.635 150.982 401.162C151.5 400.405 153.571 397.021 153.571 397.021C153.571 397.021 154.009 392.363 153.69 392.323C152.575 392.204 152.256 396.583 152.256 396.583C152.256 396.583 150.743 398.654 150.464 398.932C149.787 399.649 149.907 399.131 149.907 399.131Z" fill="#F8A492"/>
<path d="M86.6243 376.039C84.872 383.445 94.1911 399.967 94.1911 399.967C94.1911 399.967 107.493 393.518 109.803 390.731C109.803 390.731 100.643 375.601 100.085 374.606C98.8507 372.456 94.5496 368.077 91.6423 368.873C89.8104 369.43 86.6243 376.039 86.6243 376.039Z" fill="#E74A60"/>
<path d="M88.7351 357.805C89.7307 350.997 101.001 337.142 96.6604 331.369C93.1557 326.671 86.9828 328.104 83.0799 329.418C65.3178 335.509 66.3533 357.845 60.7379 361.308C50.5825 367.639 44.3299 371.58 43.613 385.834C42.7369 402.754 57.1138 411.354 74.3582 407.213C83.6375 404.984 86.1066 401.958 89.8104 393.199C91.4831 389.258 94.8682 376.915 93.9522 370.903C93.1159 365.529 87.9386 363.259 88.7351 357.805Z" fill="#031322"/>
<path d="M95.4656 345.343C95.4656 347.374 94.7488 349.006 93.8328 349.006C92.9168 349.006 92.2 347.374 92.2 345.343C92.2 343.313 92.9168 341.68 93.8328 341.68C94.7488 341.68 95.4656 343.313 95.4656 345.343Z" fill="#F7A491"/>
<path d="M117.728 499.342L118.564 465.939C118.724 456.503 116.852 447.147 113.108 438.547L106.776 424.055C104.227 424.891 101.798 425.607 99.1296 425.926C93.2752 426.603 87.5404 425.926 81.7259 425.249C81.7259 425.488 81.6861 425.687 81.6462 425.846C80.6108 430.783 74.7166 441.732 72.2475 456.702C69.4597 473.702 68.3844 499.143 68.7428 501.174C95.6249 502.368 101.997 503.363 117.728 499.342Z" fill="#FFCB83"/>
<path d="M451.982 332.125L472.173 352.311C472.173 352.311 510.645 367.36 514.946 376.597C519.247 385.834 511.083 385.396 502.042 384.122C493.002 382.848 467.434 366.922 467.434 366.922L444.017 339.849L451.982 332.125Z" fill="#063E70"/>
<path d="M511.123 372.576L506.105 370.784L496.427 375.283C496.427 375.283 491.409 378.667 489.02 387.068C486.59 395.468 489.02 445.594 493.042 453.636C497.104 461.718 511.123 372.576 511.123 372.576Z" fill="#FFCB83"/>
<path d="M542.863 573.634C542.863 573.634 546.408 575.903 546.726 576.978C547.005 578.014 549.634 589.44 548.638 590.754C547.682 592.068 544.098 591.431 545.492 592.386C546.527 593.103 553.298 593.66 557.599 592.506C558.873 592.147 558.276 581.517 558.475 579.885C558.754 577.536 560.386 572.201 559.391 570.807C558.913 570.131 556.125 568.936 553.656 567.981C551.027 566.945 548.12 564.079 548.12 564.079L542.863 573.634Z" fill="#F7A491"/>
<path d="M553.417 567.861C553.417 567.861 551.306 588.086 548.877 589.559C548.24 589.958 544.775 590.236 544.456 591.908C544.456 591.948 544.377 593.62 545.412 593.66L558.515 593.62C558.515 593.62 558.634 583.667 558.554 579.805C558.554 579.805 560.347 569.852 559.789 569.135C559.152 568.339 553.417 567.861 553.417 567.861Z" fill="#063E70"/>
<path d="M594.118 573.634C594.118 573.634 597.663 575.903 597.981 576.978C598.26 578.014 600.889 589.44 599.893 590.754C598.897 592.068 595.353 591.431 596.747 592.386C597.782 593.103 604.553 593.66 608.854 592.506C610.128 592.147 609.531 581.517 609.73 579.885C610.009 577.536 611.642 572.201 610.646 570.807C610.168 570.131 607.38 568.936 604.911 567.981C602.283 566.945 599.375 564.079 599.375 564.079L594.118 573.634Z" fill="#F7A491"/>
<path d="M529.801 442.289C529.801 442.289 541.788 466.058 544.217 472.468L562.457 518.771L602.721 566.11C602.721 566.11 599.774 573.714 595.313 575.744C595.313 575.744 546.766 536.568 542.784 530.397C536.69 521.001 508.972 463.351 508.972 463.351L503.834 452.283L529.801 442.289Z" fill="#4054E7"/>
<path d="M500.808 442.05L501.007 462.315C501.007 462.315 492.325 528.565 494.037 532.507C498.139 542.102 543.182 574.629 543.182 574.629L549.315 564.079L516.977 527.968L529.243 492.813C532.668 484.651 539.956 468.885 539.797 460.006C539.638 452.402 524.584 434.844 524.584 434.844L500.808 442.05Z" fill="#6577FF"/>
<path d="M519.207 471.99C531.154 469.283 540.792 465.063 541.788 461.758C542.226 460.245 535.575 445.116 530.677 424.931C529.084 418.322 529.362 412.15 526.814 389.019C526.256 384.122 524.225 373.85 516.658 371.182C513.99 370.267 512.516 370.386 512.516 370.386C512.437 370.386 502.839 370.466 498.458 372.894C497.383 374.367 493.32 382.41 492.245 404.347C491.767 413.902 489.856 444.638 490.254 449.655C490.294 450.411 490.373 451.128 490.493 451.805C492.205 465.063 506.184 474.976 519.207 471.99Z" fill="#063E70"/>
<path d="M498.139 387.904C503.038 387.346 515.264 371.341 515.264 371.341L515.224 371.302L507.658 359.357C507.658 359.357 496.546 361.388 498.697 364.772C500.887 368.156 502.082 376.278 502.082 376.278C502.042 376.358 502.002 376.477 501.923 376.637C501.206 378.229 498.737 383.166 498.139 387.904Z" fill="#F7A491"/>
<path d="M498.737 364.732C496.546 361.348 507.697 359.318 507.697 359.318L508.335 360.313C508.335 361.149 508.255 361.906 508.016 362.582C506.821 365.967 503.914 368.953 500.927 370.386C500.37 368.316 499.613 366.126 498.737 364.732Z" fill="#FE875E"/>
<path d="M501.405 340.446C501.644 340.207 510.087 354.102 508.056 359.795C506.025 365.489 499.215 370.067 495.192 368.037C490.732 365.767 483.962 349.882 488.024 343.153C492.086 336.385 501.405 340.446 501.405 340.446Z" fill="#F7A491"/>
<path d="M489.179 334.235C494.157 333.16 502.998 334.633 508.016 338.137C514.149 342.437 514.348 350.121 511.6 355.137C508.853 360.154 510.485 363.816 510.485 363.816C510.485 363.816 501.843 363.259 500.131 357.407C499.414 354.938 500.29 353.266 498.657 351.872C497.383 350.797 496.308 347.692 495.033 345.184C495.033 345.184 489.458 342.238 487.347 344.666C486.63 345.502 482.847 335.589 489.179 334.235Z" fill="#031322"/>
<path d="M497.781 352.947C498.538 354.739 500.011 355.854 501.047 355.416C502.082 354.978 502.361 353.146 501.604 351.355C500.848 349.563 499.374 348.448 498.339 348.886C497.264 349.324 497.025 351.156 497.781 352.947Z" fill="#F7A491"/>
<path d="M604.712 567.861C604.712 567.861 602.561 588.047 600.092 589.52C599.455 589.918 595.99 590.196 595.672 591.869C595.672 591.908 595.552 593.62 596.627 593.581L609.73 593.541C609.73 593.541 609.889 583.587 609.809 579.726C609.809 579.726 611.602 569.772 611.044 569.055C610.447 568.339 604.712 567.861 604.712 567.861Z" fill="#063E70"/>
<path d="M315.341 474.578C304.947 452.84 302.079 420.352 313.43 394.632C332.546 351.156 385.115 333.439 381.252 284.189C380.296 271.768 374.761 261.814 366.636 255.364C345.25 238.483 310.801 247.402 286.229 259.226C270.538 266.751 255.962 277.461 242.501 291.316L235.651 204.323C265.161 183.381 300.845 172.433 336.488 169.646C409.488 163.913 465.881 191.304 471.616 264.322C476.833 330.931 431.83 360.432 401.643 393.717C384.876 412.19 381.093 426.443 382.407 442.926C383.084 451.446 386.27 461.957 391.408 468.686L315.341 474.578ZM367.751 593.541C296.783 599.115 288.539 503.801 360.264 498.148C430.874 492.613 438.481 588.007 367.751 593.541Z" fill="#FF6E53"/>
<path d="M441.149 336.544C441.03 335.947 441.508 336.425 440.592 331.727C440.313 330.373 439.477 328.94 438.84 328.183C438.481 327.785 437.724 327.068 437.247 326.79C436.45 326.312 435.813 327.108 435.972 327.546C436.131 327.984 436.968 329.537 437.127 329.975C437.286 330.413 437.366 331.528 437.008 331.886C436.649 332.244 430.755 325.516 430.397 324.919C430.078 324.401 429.401 322.211 429.401 322.211C429.401 322.211 428.883 320.619 428.246 321.017C427.848 321.295 427.37 322.609 428.565 325.197C429.6 327.467 431.034 329.258 430.874 329.378C430.436 329.736 427.888 326.67 427.888 326.67C427.888 326.67 427.011 324.958 426.374 324.361C425.976 323.246 425.299 321.813 424.582 322.37C424.463 322.49 424.94 324.879 424.94 324.879C424.94 324.879 425.817 326.471 426.215 327.268C426.892 328.661 428.405 330.333 428.923 331.249C429.361 332.005 428.923 331.806 428.883 331.926C428.843 332.005 428.206 331.169 427.21 329.935C426.693 329.298 426.016 328.741 425.538 327.905C425.1 327.148 424.343 326.193 423.865 325.635C422.551 324.043 421.834 325.118 422.83 326.79C423.228 327.427 423.626 328.104 424.064 328.82C425.737 331.528 427.808 333.638 427.609 333.877C427.33 334.195 423.786 330.134 423.786 330.134C423.786 330.134 421.276 328.462 422.79 330.93C424.502 333.797 426.374 335.589 426.494 335.668C427.091 336.186 428.644 338.614 430.954 340.048C433.264 341.521 437.008 343.75 437.008 343.75C437.446 344.268 438.521 345.94 440.034 348.329L445.65 341.6C443.658 339.57 441.229 336.942 441.149 336.544Z" fill="#F8A492"/>
<path d="M436.729 346.02L444.455 339.251L471.018 365.489C471.018 365.489 512.158 369.112 512.277 369.112L513.91 369.629C528.845 374.765 522.672 386.948 519.804 388.859C513.114 393.239 475.917 390.611 463.969 383.245C454.212 377.114 436.729 346.02 436.729 346.02Z" fill="#064C91"/>
<path d="M159.744 383.644C160.022 384.719 160.222 385.077 160.58 385.834C163.009 390.571 168.665 397.3 168.665 397.3L173.045 386.829C173.045 386.829 172.329 383.524 171.094 378.826C166.872 379.941 162.85 380.658 159.744 383.644Z" fill="#F8A492"/>
<path d="M184.794 374.526C184.794 374.526 160.461 385.714 159.664 385.475C159.146 385.356 149.668 368.395 149.588 352.51C149.548 345.144 156.677 336.305 164.682 338.057C168.704 338.933 168.625 340.128 174.599 349.364C180.493 358.601 184.794 374.526 184.794 374.526Z" fill="#6577FF"/>
<path d="M205.543 575.028C205.543 575.028 204.945 585.22 204.945 585.26C204.746 586.574 203.91 589.759 203.91 590.913C203.91 595.332 223.584 587.171 219.163 585.18C218.765 585.021 216.654 583.667 216.535 582.154C216.336 579.845 215.818 575.147 215.818 575.147L205.543 575.028Z" fill="#F7A491"/>
<path d="M219.163 585.14C219.163 585.14 214.543 586.494 212.194 586.812C209.844 587.131 206.698 584.304 205.025 585.061C203.193 585.897 203.273 593.541 203.273 593.541C203.273 593.541 228.044 595.691 235.014 593.461C237.722 592.625 228.602 588.325 219.163 585.14Z" fill="#063E70"/>
<path d="M165.28 575.028C165.28 575.028 164.682 585.22 164.682 585.26C164.483 586.574 163.647 589.759 163.647 590.913C163.647 595.332 183.32 587.171 178.9 585.18C178.502 585.021 175.793 582.672 175.674 581.159C175.475 578.85 175.594 575.147 175.594 575.147L165.28 575.028Z" fill="#F7A491"/>
<path d="M178.9 585.14C178.9 585.14 174.28 586.494 171.93 586.812C169.581 587.131 166.434 584.304 164.762 585.061C162.93 585.897 162.85 593.541 162.85 593.541C162.85 593.541 187.741 596.089 194.75 593.461C197.419 592.506 188.338 588.325 178.9 585.14Z" fill="#063E70"/>
<path d="M171.293 389.297L188.617 363.379C188.697 363.14 188.856 362.702 189.095 361.985C189.971 359.397 191.803 354.062 193.356 348.727V348.687C193.834 346.816 194.909 343.591 195.945 340.446C197.06 336.942 198.494 332.643 198.534 331.886C198.494 331.767 198.414 331.528 198.295 331.249C197.657 329.497 196.781 325.317 196.502 323.485C196.303 322.331 196.104 319.504 197.418 319.504C199.45 319.504 198.494 322.331 199.41 324.083C199.768 322.888 200.445 320.579 200.804 318.23L201.162 312.736C201.242 312.338 200.804 309.272 202.237 309.272H202.317C203.591 309.391 203.552 312.616 204.109 318.071C204.268 317.434 204.428 316.677 204.587 316C204.587 315.642 204.826 313.97 205.025 313.134C204.786 311.621 204.906 309.192 206.419 309.431C207.176 309.551 207.136 312.895 207.136 312.895C207.136 313.373 207.096 316.916 207.096 317.593C207.255 316.399 207.853 311.342 209.047 311.342C210.043 311.342 210.123 312.696 210.083 313.771C210.083 314.408 209.446 319.902 209.406 320.539C209.884 319.703 210.441 314.846 210.879 314.846C212.791 314.846 212.114 321.734 211.397 323.525C211.318 323.724 211.278 324.083 211.158 324.481C210.919 325.715 210.521 327.745 209.486 329.617C208.291 331.806 206.618 335.35 206.339 335.867C206.14 336.982 205.583 340.924 204.826 345.861C204.507 347.971 204.189 350.32 203.83 352.709C203.751 353.226 203.392 354.898 202.038 361.109C200.166 369.629 199.967 369.988 199.888 370.147C199.091 371.7 180.373 398.773 179.577 399.927L179.099 400.604L171.293 389.297Z" fill="#F7A491"/>
<path d="M203.552 328.86C203.552 328.86 202.158 325.038 199.649 324.998C199.649 324.998 201.043 324.441 202.237 325.476C203.432 326.511 203.552 328.86 203.552 328.86Z" fill="#F47458"/>
<path d="M167.111 321.455L164.881 336.504C164.881 336.504 173.364 343.79 178.342 342.237C182.484 340.963 179.656 335.151 179.656 335.151C179.656 335.151 177.426 327.108 178.103 322.888C178.82 318.708 167.111 321.455 167.111 321.455Z" fill="#F7A491"/>
<path d="M168.744 325.994C170.895 327.069 175.076 328.542 178.382 328.9C178.063 326.79 177.904 324.56 178.143 322.928C178.462 320.977 176.152 320.539 173.563 320.579C170.178 320.898 167.151 321.455 167.151 321.455L166.713 324.361C167.35 325.078 168.027 325.635 168.744 325.994Z" fill="#FE875E"/>
<path d="M156.398 304.096C156.04 304.096 159.744 320.898 165.518 323.804C171.253 326.71 179.816 325.198 181.448 320.659C183.241 315.642 176.749 298.483 168.665 296.293C160.54 294.103 156.398 304.096 156.398 304.096Z" fill="#F7A491"/>
<path d="M163.049 288.609C158.469 291.436 156.359 295.616 155.642 297.328C153.491 298.403 150.863 300.792 149.628 307.122C148.075 314.926 153.571 320.977 159.346 322.769C165.16 324.6 166.116 328.661 166.116 328.661L166.673 324.242C166.673 324.242 165.399 320.42 163.448 318.469C161.496 316.558 164.363 313.771 164.602 311.462C164.802 309.71 163.567 306.286 163.846 303.419C163.846 303.419 167.072 298.204 170.258 296.93C175.714 294.82 168.943 284.986 163.049 288.609Z" fill="#031322"/>
<path d="M165.479 314.487C166.235 316.438 165.917 318.349 164.802 318.787C163.686 319.225 162.133 317.991 161.416 316.08C160.66 314.129 160.978 312.218 162.093 311.78C163.209 311.302 164.722 312.537 165.479 314.487Z" fill="#F7A491"/>
<path d="M186.865 389.695L220.318 383.883C220.318 383.883 216.495 373.65 215.141 373.65C213.787 373.65 189.852 384.798 189.852 384.798L187.94 388.859L186.865 389.695Z" fill="#F8A492"/>
<path d="M169.74 414.141C169.74 414.141 166.395 431.34 167.749 444.399C169.103 457.458 169.222 503.801 169.222 503.801L164.045 577.934L176.351 578.213C176.351 578.213 190.927 504.12 190.688 505.991C190.409 507.902 195.587 453.795 195.587 453.795L178.183 412.469L169.74 414.141Z" fill="#063E70"/>
<path d="M173.006 413.345C173.006 413.345 170.815 428.832 173.563 435.64C176.271 442.448 196.861 509.096 197.14 514.551C197.418 520.005 204.268 580.044 204.268 580.044L218.566 579.606L221.672 512.799L215.181 428.832L208.888 407.612L173.006 413.345Z" fill="#064C91"/>
<path d="M164.881 336.504C164.881 336.504 168.426 338.973 171.691 338.694C174.997 338.415 179.617 335.151 179.617 335.151L178.979 332.802C178.979 332.802 170.457 331.488 170.258 331.607C170.059 331.767 164.881 336.504 164.881 336.504Z" fill="#F7A491"/>
<path d="M202.516 373.173C202.516 373.173 215.181 385.913 220.876 383.723C226.571 381.534 228.96 374.128 215.021 363.259C202.516 353.505 202.516 373.173 202.516 373.173Z" fill="#F8A492"/>
<path d="M211.079 388.899C209.207 377.99 195.587 344.069 194.511 337.818C193.994 334.792 186.626 334.713 179.656 335.111C172.249 335.549 164.921 336.544 164.921 336.544C164.921 336.544 158.39 337.699 155.482 340.565C152.615 343.432 151.858 351.395 155.96 366.524C159.226 378.428 163.288 384.997 165.279 393.677C165.678 396.583 166.036 399.45 166.474 402.834C167.191 415.813 166.474 432.973 166.474 432.973C166.474 432.973 202.078 440.856 215.42 428.912C215.42 428.832 212.99 400.047 211.079 388.899Z" fill="#65CEFE"/>
<path d="M220.159 365.449C220.159 365.449 206.18 377.751 205.384 377.751C204.866 377.751 185.431 362.503 180.971 350.001C178.501 343.074 183.679 335.35 189.613 335.35C193.715 335.35 195.547 336.504 203.711 343.83C211.835 351.156 220.159 365.449 220.159 365.449Z" fill="#6577FF"/>
<path d="M423.387 78.6717L393.08 99.1358C390.014 101.206 385.832 100.41 383.761 97.3442L363.251 67.0461C361.18 63.9804 361.977 59.8 365.043 57.7297L395.35 37.2257C398.417 35.1554 402.598 35.9517 404.669 39.0173L425.179 69.3155C427.25 72.4209 426.454 76.5615 423.387 78.6717Z" fill="#FF6E53"/>
<path d="M408.134 57.1724C413.431 65.0157 411.4 75.6857 403.554 80.9809C395.709 86.2761 385.036 84.2456 379.739 76.4024C374.442 68.5591 376.473 57.889 384.319 52.5938C392.164 47.2986 402.837 49.3291 408.134 57.1724Z" fill="white"/>
<path d="M388.301 59.7603L395.35 67.4443C395.868 68.0017 395.828 68.8776 395.271 69.3951C394.713 69.9127 393.837 69.8729 393.319 69.3155C393.24 69.2359 393.16 69.1164 393.12 69.0368L388.301 59.7603Z" fill="#FF6E53"/>
<path d="M393.638 67.484L404.231 61.5518L394.992 69.4348C394.474 69.8728 393.757 69.7932 393.319 69.3154C392.881 68.7978 392.961 68.0812 393.439 67.6432C393.518 67.5636 393.598 67.5238 393.638 67.484Z" fill="#FF6E53"/>
<path d="M134.972 287.374H73.6015C62.5301 287.374 53.5694 278.416 53.5694 267.348V254.648C53.5694 243.579 62.5301 234.621 73.6015 234.621H134.972C146.044 234.621 155.005 243.579 155.005 254.648V267.348C155.005 278.376 146.004 287.374 134.972 287.374Z" fill="#C9EDF9"/>
<path d="M142.937 267.428L167.908 278.655L151.221 255.245L142.937 267.428Z" fill="#C9EDF9"/>
<path d="M87.3412 259.266C87.3412 261.416 85.3898 263.168 82.9604 263.168C80.5311 263.168 78.5797 261.416 78.5797 259.266C78.5797 257.116 80.5311 255.365 82.9604 255.365C85.3898 255.365 87.3412 257.116 87.3412 259.266Z" fill="white"/>
<path d="M107.692 259.266C107.692 261.416 105.74 263.168 103.311 263.168C100.882 263.168 98.9303 261.416 98.9303 259.266C98.9303 257.116 100.882 255.365 103.311 255.365C105.74 255.404 107.692 257.116 107.692 259.266Z" fill="white"/>
<path d="M128.043 259.266C128.043 261.416 126.091 263.168 123.662 263.168C121.233 263.168 119.281 261.416 119.281 259.266C119.281 257.116 121.233 255.365 123.662 255.365C126.091 255.404 128.043 257.116 128.043 259.266Z" fill="white"/>
<path d="M357.357 10.3913L353.255 1.59254L356.68 0L358.99 4.9767L364.725 1.51292L366.676 4.73782L357.357 10.3913Z" fill="#C9EDF9"/>
<path d="M122.268 180.077L113.108 183.342L111.834 179.798L117.011 177.927L114.144 171.955L117.529 170.323L122.268 180.077Z" fill="#FF6E53"/>
<path d="M507.618 34.8767C508.375 37.3451 509.171 39.7737 509.928 42.2422C510.525 44.1532 510.963 47.2587 512.835 48.3735C513.313 48.6522 514.07 48.5327 514.309 47.9753C515.225 45.9448 513.91 43.3171 513.273 41.3265C512.477 38.8978 511.72 36.4294 510.923 34.0008C510.246 31.8906 506.941 32.7665 507.618 34.8767Z" fill="#FFCB83"/>
<path d="M533.544 32.2491C529.562 45.7857 529.522 45.3875 529.84 46.781C530.079 47.856 531.553 48.1745 532.27 47.418C533.186 46.4625 532.947 46.7412 536.81 33.1648C537.407 31.0547 534.181 30.1389 533.544 32.2491Z" fill="#FFCB83"/>
<path d="M548.718 62.3879C551.067 61.2731 553.377 60.1583 555.727 59.0037C557.798 58.0084 560.506 57.2121 561.9 55.3409C562.537 54.5048 561.661 53.4298 560.785 53.39C558.475 53.3104 556.006 55.102 553.975 56.0575C551.625 57.1723 549.315 58.3269 546.965 59.4417C545.014 60.3972 546.766 63.3036 548.718 62.3879Z" fill="#FFCB83"/>
<path d="M541.032 103.078C543.421 106.183 545.85 109.328 548.559 112.155C550.032 113.668 552.143 111.438 550.829 109.886C548.32 106.86 545.731 103.914 543.302 100.808C542.027 99.1758 539.797 101.485 541.032 103.078Z" fill="#FFCB83"/>
<path d="M549.873 87.2714C552.023 88.2269 554.214 89.1028 556.444 89.9787C558.435 90.775 560.825 92.1685 563.015 91.85C564.17 91.6907 564.289 90.138 563.652 89.4213C562.856 88.5454 562.418 88.5853 557.639 86.7538C555.488 85.9177 553.337 85.0419 551.187 84.2456C549.395 83.6086 548.16 86.515 549.873 87.2714Z" fill="#FFCB83"/>
</svg>
