<svg width="512" height="418" viewBox="0 0 512 418" fill="none" xmlns="http://www.w3.org/2000/svg">
<path opacity="0.6" d="M512 403.368C512 411.349 397.41 418 255.917 418C114.59 418 0 411.516 0 403.368C0 395.388 114.59 388.737 256.083 388.737C397.41 388.737 512 395.388 512 403.368Z" fill="#D1E3F1"/>
<path d="M86.3574 403.202H90.8414L74.4002 360.471C75.2306 356.48 76.8913 351.16 80.5449 344.842C87.3538 333.036 92.5021 319.07 83.7003 320.067C76.227 320.899 70.9127 336.861 71.2449 352.49L65.2663 337.193C64.2698 332.205 62.7752 324.889 63.2734 316.742C64.4359 297.787 61.9448 279.83 52.8109 284.652C43.6769 289.64 48.493 320.566 62.1109 340.519L65.1002 348.499C55.3019 333.702 36.8679 321.896 29.7269 327.051C22.5858 332.205 35.7054 339.022 48.6591 343.345C58.6234 346.504 64.2698 350.993 66.927 353.488L81.2092 390.732C65.7645 367.454 36.3697 348.666 25.0768 356.813C13.7839 364.96 34.5429 375.768 55.1359 382.585C70.7466 387.739 79.8806 394.556 84.0324 398.546L86.3574 403.202Z" fill="#1C47C1"/>
<path d="M422.653 403.202C423.484 399.378 423.151 394.889 421.325 390.898C416.508 380.423 422.653 376.931 430.459 371.611C438.264 366.29 437.101 355.815 429.13 348.5C421.158 341.184 430.625 332.039 423.816 320.068C417.007 308.096 404.883 319.569 404.385 332.205C404.053 341.184 392.428 341.682 390.767 353.654C389.273 363.963 403.223 370.281 390.269 377.763C386.117 380.091 384.457 384.081 383.958 388.404C383.46 393.891 385.121 399.212 388.442 403.202H422.653Z" fill="#1C47C1"/>
<path d="M404.717 403.202L416.342 336.528C416.509 335.863 416.01 335.364 415.512 335.364C414.848 335.198 414.35 335.697 414.35 336.196L402.558 403.368H404.717V403.202Z" fill="#0036AC"/>
<path d="M455.369 403.202C455.535 402.204 455.535 401.373 455.535 400.375C455.369 385.744 464.171 384.746 475.962 382.585C487.753 380.423 491.739 367.454 486.259 354.984C480.612 342.514 496.389 336.528 494.562 319.07C492.735 301.612 472.641 308.928 465.832 323.393C460.85 333.702 447.066 328.547 438.928 341.516C431.953 352.823 444.907 367.288 426.141 369.283C420.162 369.948 416.176 373.606 413.519 378.428C409.201 386.243 409.201 395.554 413.187 403.202H455.369Z" fill="#0172D0"/>
<path d="M431.787 403.202L477.291 334.2C477.623 333.535 477.457 332.704 476.958 332.371C476.294 332.039 475.464 332.205 475.132 332.704L428.632 403.202H431.787Z" fill="#1C47C1"/>
<path d="M127.211 382.086C123.059 349.663 116.915 315.911 110.106 294.13C101.304 265.531 90.3432 246.577 77.3896 237.764C76.5592 237.266 75.3967 237.432 74.7325 238.263C74.2342 239.095 74.4003 240.258 75.2307 240.924C97.8165 256.22 114.424 305.935 123.558 384.58L127.211 382.086Z" fill="#1C47C1"/>
<path d="M100.141 269.189C100.141 269.189 115.42 266.197 109.109 239.427C109.109 239.427 87.0218 250.734 100.141 269.189Z" fill="#0172D0"/>
<path d="M104.127 282.823C104.127 282.823 101.968 267.36 74.8984 272.182C74.8984 272.182 85.0288 294.961 104.127 282.823Z" fill="#0172D0"/>
<path d="M85.0289 247.242C85.0289 247.242 88.1842 231.945 60.9484 227.456C61.1145 227.456 62.9413 252.396 85.0289 247.242Z" fill="#0172D0"/>
<path d="M113.095 310.091C113.095 310.091 128.54 312.419 131.695 285.151C131.529 285.151 106.95 288.144 113.095 310.091Z" fill="#0172D0"/>
<path d="M115.088 324.557C115.088 324.557 115.586 308.928 88.1842 309.094C88.0181 309.094 93.9967 333.203 115.088 324.557Z" fill="#0172D0"/>
<path d="M119.738 344.177C119.738 344.177 135.183 346.837 138.67 319.569C138.67 319.569 113.925 322.229 119.738 344.177Z" fill="#0172D0"/>
<path d="M485.595 246.078L485.428 246.244L452.214 309.593L439.427 286.481L282.322 372.941L256.913 326.552L115.42 404.366H60.9484L267.21 290.971L292.619 337.193L426.805 263.37L414.184 240.259L485.595 246.078Z" fill="#FFAC00"/>
<path d="M485.428 246.244L452.214 309.593L439.427 286.481L282.322 372.941L256.913 326.552L115.42 404.366H84.1985L260.733 307.431L286.142 353.654L485.428 246.244Z" fill="#FA8A00"/>
<path d="M192.976 294.795L183.842 301.113C183.842 301.113 183.676 305.27 187.329 309.759L198.124 302.609L192.976 294.795Z" fill="#FDA893"/>
<path d="M188.658 306.434C189.986 308.096 190.651 309.26 189.322 311.422C188.492 312.752 186.001 327.383 186.831 331.873C187.495 336.196 184.174 336.528 182.347 336.362C180.52 336.196 170.888 303.274 170.888 303.274C170.888 303.274 180.022 298.785 183.343 298.785C186.665 298.785 186.831 303.441 188.658 306.434Z" fill="#0172D0"/>
<path d="M263.058 204.511C263.058 204.511 262.062 258.216 256.415 268.691C250.769 279.332 196.131 304.771 196.131 304.771C196.131 304.771 192.311 300.448 191.149 294.296C191.149 294.296 206.594 280.828 212.572 274.676C221.706 265.531 235.158 257.551 235.158 257.551L233.829 196.53L263.058 204.511Z" fill="#001F37"/>
<path d="M192.976 291.469C192.976 291.469 188.99 293.964 187.828 295.127C187.828 295.127 190.983 305.436 196.131 306.6L200.117 304.106C200.283 304.272 194.637 297.289 192.976 291.469Z" fill="#043C62"/>
<path d="M351.74 275.508L357.387 284.985C357.387 284.985 361.539 285.317 366.189 281.992L359.712 270.852L351.74 275.508Z" fill="#FDA893"/>
<path d="M363.365 280.163C364.694 278.5 365.857 277.835 368.182 278.833C369.676 279.498 384.457 279.664 388.775 278.334C393.092 277.004 395.583 281.161 393.923 281.992C385.287 286.814 363.033 298.286 363.033 298.286C363.033 298.286 357.221 289.807 356.723 286.648C356.224 283.322 360.708 282.491 363.365 280.163Z" fill="#0172D0"/>
<path d="M260.235 174.084C260.235 174.084 320.353 197.361 328.158 206.506C335.964 215.651 362.203 272.681 362.203 272.681C362.203 272.681 357.719 280.662 351.574 279.166C351.574 279.166 338.123 259.38 333.473 251.897C328.49 243.917 316.865 234.439 311.219 217.314C311.219 217.314 279.167 216.15 254.588 212.159C238.147 209.499 226.688 197.694 230.674 181.399C230.674 181.399 230.674 181.399 230.674 181.233C231.006 180.236 231.836 179.57 232.833 179.404L260.235 174.084Z" fill="#043C62"/>
<path d="M348.585 276.173C348.585 276.173 350.578 279.664 351.907 280.828C351.907 280.828 359.712 278.667 363.532 272.681L361.539 268.691C361.539 268.857 354.564 273.845 348.585 276.173Z" fill="#005982"/>
<path d="M383.294 64.6786C381.467 64.1798 373.496 69.0016 373.164 69.1679C372.831 69.1679 371.171 68.8353 369.676 68.6691C368.015 68.5028 367.185 69.1679 366.022 71.3294C364.86 73.4909 363.864 77.3151 363.864 77.3151C363.033 77.6476 362.203 77.9801 361.372 78.4789C362.701 80.8067 364.196 83.3007 365.69 85.4622C367.019 84.6309 368.181 83.7996 369.344 83.1345C370.174 83.467 371.005 83.467 371.669 83.3007C373.662 82.8019 375.323 82.1369 376.153 81.6381C376.651 81.4718 376.983 81.3055 376.983 81.3055C377.149 81.3055 378.146 81.6381 379.806 81.1392C381.799 80.4742 383.128 78.9778 382.962 77.9801C382.962 76.9825 381.799 76.4837 381.799 76.4837C381.799 76.4837 382.63 75.6524 382.464 74.6548C382.298 73.6572 380.471 72.6595 380.471 72.6595C380.471 72.6595 381.301 71.4957 380.471 70.498C379.64 69.5004 377.315 70.6643 377.149 70.6643C377.481 70.3318 385.121 65.0112 383.294 64.6786Z" fill="#FDA893"/>
<path d="M368.68 74.9873H368.514C368.348 74.8211 368.181 74.6548 368.348 74.3222L369.178 72.4933C369.178 72.327 369.344 72.327 369.51 72.327C369.676 72.327 369.676 72.327 369.842 72.327C369.842 72.327 372.001 73.4909 373.828 72.9921C374.326 72.8258 374.824 72.4933 374.824 72.1607C374.99 71.8282 374.824 71.4957 374.824 71.4957C374.658 71.3294 374.824 70.9969 374.99 70.8306C375.156 70.6643 375.489 70.8306 375.655 70.9969C375.655 70.9969 375.987 71.6619 375.655 72.4933C375.489 72.9921 374.824 73.4909 373.994 73.8234C372.333 74.3222 370.506 73.6572 369.842 73.3246L369.178 74.8211C369.012 74.8211 368.846 74.9873 368.68 74.9873Z" fill="#FD896B"/>
<path d="M376.984 81.3056C376.984 81.3056 376.651 81.4718 375.987 81.6381C375.157 80.8068 374.991 79.6429 374.991 78.8115C374.825 77.9802 374.825 77.3151 374.326 76.8163C373.828 76.3175 373.662 75.8187 373.496 75.1536C373.496 74.6548 373.496 74.156 373.662 73.6572C373.662 73.4909 373.662 73.3247 373.828 73.1584C373.994 72.8258 373.994 72.6596 373.994 72.6596C374.16 72.4933 374.326 72.327 374.659 72.4933C374.825 72.6596 374.991 72.8258 374.825 73.1584C374.825 73.1584 374.825 73.1584 374.825 73.3247C374.658 73.6572 374.492 74.3223 374.492 74.9873C374.492 75.4861 374.658 75.8187 374.991 76.3175C375.655 76.9826 375.821 77.9802 375.821 78.8115C375.987 79.6429 376.153 80.6405 376.984 81.3056Z" fill="#FD896B"/>
<path d="M370.673 78.3127C370.507 78.3127 370.34 78.3127 370.174 78.1464C370.008 77.9801 370.174 77.6476 370.34 77.4813C370.34 77.4813 372.832 75.9849 372.998 73.4909C372.998 73.3246 373.164 72.9921 373.496 72.9921C373.662 72.9921 373.994 73.1583 373.994 73.4909C373.828 76.4837 371.005 78.1464 370.839 78.1464C370.839 78.3127 370.673 78.3127 370.673 78.3127Z" fill="#FD896B"/>
<path d="M366.853 85.2959C366.853 85.2959 342.108 101.091 334.967 102.422C327.826 103.585 306.071 100.426 306.071 100.426C303.579 100.26 301.421 99.9276 299.428 99.595C292.785 98.4312 288.965 96.1034 286.64 93.2768C282.821 88.455 285.146 81.638 287.304 75.9849C287.304 75.9849 290.792 78.6452 308.063 82.3031C308.063 82.3031 332.642 87.1249 333.971 87.2911C333.971 87.2911 352.571 81.3055 362.701 76.6499C362.701 76.9825 365.026 83.9658 366.853 85.2959Z" fill="#0172D0"/>
<path d="M362.867 76.1511L359.546 77.6475L364.528 87.6237L367.683 85.961L362.867 76.1511Z" fill="#0056C5"/>
<path d="M299.427 99.5951C292.785 98.4313 288.965 96.1035 286.64 93.2769C285.145 87.125 284.315 80.4742 286.64 78.8115C286.64 78.8115 293.781 92.113 299.427 99.5951Z" fill="#1C47C1"/>
<path d="M219.879 188.549L196.131 240.259C195.135 242.254 192.81 243.252 190.817 242.254L106.784 203.68C104.791 202.682 103.795 200.354 104.791 198.359L128.54 146.649C129.536 144.654 131.861 143.656 133.854 144.654L217.886 183.228C220.045 184.226 220.876 186.554 219.879 188.549Z" fill="#001F37"/>
<path d="M207.092 216.648L219.879 188.549C220.876 186.554 219.879 184.06 217.886 183.228L133.854 144.654C131.861 143.656 129.37 144.654 128.54 146.649L115.752 174.582L207.092 216.648Z" fill="#043C62"/>
<path d="M192.644 161.613L188.824 169.761L184.672 167.932L188.326 159.951L184.34 158.122L184.174 157.956L181.683 156.792L181.351 156.625L170.722 151.804L167.068 159.785L162.917 157.956L166.736 149.808C167.733 147.647 170.224 146.649 172.383 147.647L182.347 152.302L183.177 152.635L184.506 153.3L184.838 153.466L190.485 156.127C192.644 156.958 193.64 159.452 192.644 161.613Z" fill="#FFAC00"/>
<path d="M184.174 158.122L181.683 156.958L181.351 156.792C181.517 155.129 182.015 153.466 182.347 152.136L183.178 152.469L184.506 153.134C184.174 155.129 184.174 156.792 184.174 158.122Z" fill="#FA8A00"/>
<path d="M164.315 154.959L162.928 157.98L167.155 159.92L168.543 156.899L164.315 154.959Z" fill="#FA8A00"/>
<path d="M186.054 164.98L184.668 168.002L188.894 169.945L190.28 166.923L186.054 164.98Z" fill="#FA8A00"/>
<path d="M140.497 181.067L136.677 189.214C136.511 189.713 136.013 189.879 135.515 189.713L131.363 187.718C130.865 187.551 130.699 187.053 130.865 186.554L134.684 178.407C134.85 177.908 135.349 177.742 135.847 177.908L139.999 179.903C140.497 180.069 140.829 180.734 140.497 181.067Z" fill="#FA8A00"/>
<path d="M140.497 181.067L138.67 185.224L132.858 182.563L134.684 178.407C134.85 177.908 135.349 177.742 135.847 177.908L139.999 179.903C140.497 180.069 140.829 180.734 140.497 181.067Z" fill="#FFAC00"/>
<path d="M191.813 204.677L187.994 212.824C187.827 213.323 187.329 213.489 186.831 213.323L182.679 211.328C182.181 211.162 182.015 210.663 182.181 210.164L186.001 202.017C186.167 201.518 186.665 201.352 187.163 201.518L191.315 203.513C191.813 203.679 191.979 204.178 191.813 204.677Z" fill="#FA8A00"/>
<path d="M191.813 204.677L189.986 208.834L184.174 206.173L186 202.017C186.167 201.518 186.665 201.352 187.163 201.518L191.315 203.513C191.813 203.679 191.979 204.178 191.813 204.677Z" fill="#FFAC00"/>
<path d="M188.492 154.963C187.661 154.63 186.499 154.131 185.834 153.799C185.834 153.632 185.834 153.3 185.668 152.801C185.17 151.97 184.008 152.302 183.842 152.801C183.177 153.632 182.513 155.461 182.347 157.124L183.509 157.789C183.509 157.789 182.347 159.119 181.517 158.953C180.188 158.621 180.354 157.29 180.354 157.29C180.354 157.29 179.69 158.454 178.693 158.122C177.697 157.789 177.697 156.459 177.697 156.459C176.036 157.29 175.372 155.628 175.372 155.628C175.372 155.628 173.711 156.293 173.379 154.796C173.047 153.3 175.206 148.977 175.206 148.977C176.867 144.986 179.358 140.497 181.683 137.671C182.181 136.341 183.011 134.844 183.675 133.348C185.336 134.512 187.163 135.675 188.824 136.839C189.82 137.504 190.817 138.169 191.813 139.001C190.318 140.996 188.99 142.659 188.159 143.823C188.159 144.986 188.326 146.317 188.159 147.314C187.993 148.977 189.322 152.801 188.492 154.963Z" fill="#FDA893"/>
<path d="M231.504 107.576L253.426 98.5975C253.426 98.5975 262.56 82.802 257.079 72.327C257.079 72.327 234.494 82.802 222.869 89.2865C222.869 89.2865 205.597 98.5975 199.785 105.082L181.849 135.675C181.849 135.675 187.329 141.827 190.983 141.495C197.626 132.35 206.926 119.381 208.752 115.058L231.504 107.576Z" fill="#0172D0"/>
<path d="M182.513 133.514C181.351 134.345 180.354 135.676 180.022 137.338L189.986 143.823C190.983 142.825 191.979 141.661 192.643 140.165L182.513 133.514Z" fill="#0056C5"/>
<path d="M286.142 169.762C284.98 176.579 286.142 185.058 286.142 185.058C277.174 181.567 263.722 174.75 250.935 180.403C240.638 184.892 230.508 182.398 230.508 182.398C230.508 182.398 229.512 170.759 232.501 158.788C235.49 146.983 238.479 132.019 239.476 126.199C240.306 121.211 241.137 116.556 241.967 112.233C242.465 109.572 242.963 106.912 243.462 104.418C246.285 90.2851 247.613 78.3138 249.772 76.3186C256.083 71.1642 270.531 66.0099 270.531 66.0099L280.33 68.6702C280.33 68.6702 290.792 76.8174 290.626 82.6368C289.63 134.513 288.301 134.845 287.305 150.641C287.305 155.463 287.471 162.612 286.142 169.762Z" fill="#0172D0"/>
<path d="M241.303 160.449C241.137 160.449 240.971 160.449 240.971 160.449C240.638 160.449 240.306 160.117 240.306 159.784C240.306 159.452 240.638 159.119 240.971 159.119C240.971 159.119 240.971 159.119 241.137 159.119C242.631 159.286 254.921 159.951 263.556 156.625C274.683 152.469 281.326 143.823 281.326 143.656C281.492 143.324 281.99 143.324 282.323 143.49C282.655 143.656 282.655 144.155 282.489 144.488C282.156 144.82 275.514 153.632 264.055 157.955C255.419 161.281 243.462 160.616 241.303 160.449Z" fill="#1C47C1"/>
<path d="M272.026 161.281C272.026 160.782 271.528 160.45 271.03 160.782C265.715 163.775 255.917 167.932 245.288 166.269C244.956 166.269 244.624 166.435 244.458 166.768C244.458 167.1 244.624 167.433 244.956 167.599C246.285 167.765 247.613 167.932 248.942 167.932C258.242 168.264 266.712 164.606 271.528 161.946C271.86 161.613 272.026 161.447 272.026 161.281Z" fill="#1C47C1"/>
<path d="M261.231 96.6023C261.231 96.6023 254.09 104.583 242.465 110.403C242.963 107.742 243.628 104.916 244.126 102.422L245.122 102.089L261.231 96.6023Z" fill="#1C47C1"/>
<path d="M285.312 143.656L279.333 161.281L272.026 144.488L277.34 87.125L277.506 84.7972L280.164 84.631L280.33 87.6238L285.312 143.656Z" fill="white"/>
<path d="M280.329 87.6238L279.001 89.1202L277.34 87.125L277.506 84.7972L280.163 84.631L280.329 87.6238Z" fill="#EDEDED"/>
<path d="M282.322 80.4742L279.001 87.4575L274.019 79.9754L279.001 73.9897L282.322 80.4742Z" fill="white"/>
<path d="M267.044 74.6548C266.546 72.6596 266.38 70.4981 266.878 68.5028C267.044 68.004 267.21 67.5052 267.376 67.1727C268.539 65.1775 271.362 66.0088 271.362 66.0088C272.69 71.8282 279.001 73.9897 279.001 73.9897L273.023 83.6333C273.023 83.6333 269.037 82.3032 267.044 74.6548Z" fill="#1C47C1"/>
<path d="M282.821 68.6691C282.821 68.6691 286.64 72.1607 285.478 76.4837L283.817 83.6333L279.167 73.9897C279.001 73.9897 281.658 71.4956 282.821 68.6691Z" fill="#1C47C1"/>
<path d="M285.644 61.5196L283.651 67.6715L282.322 71.662C282.156 72.327 280.994 73.9897 280.33 73.9897C275.846 73.8235 272.856 71.1632 271.03 68.8354L272.358 59.1918C272.358 59.1918 274.849 58.693 277.839 58.693L285.644 61.5196Z" fill="#FDA893"/>
<path d="M285.644 61.5196L283.651 67.6715C278.835 64.845 277.34 60.0231 277.008 58.693C277.34 58.693 277.506 58.693 277.839 58.693L285.644 61.5196Z" fill="#FD896B"/>
<path d="M295.442 38.907C295.94 42.0661 296.273 46.2228 296.273 49.3819C296.273 50.2133 296.273 50.8783 296.106 51.7097C296.106 52.0422 296.106 52.541 295.94 53.0398C295.774 53.8712 295.774 54.7025 295.774 55.7001V55.8664C295.608 57.1966 295.608 58.693 295.276 60.0231C295.11 60.6882 294.944 61.187 294.778 61.8521C294.612 62.1846 294.612 62.5172 294.446 62.8497C292.785 67.0064 291.456 70.1655 281.16 63.3485C276.344 60.1894 271.03 61.187 268.871 55.3676C268.871 55.3676 268.871 55.3676 268.871 55.2013C267.376 51.2109 266.38 47.0542 265.881 44.2276C265.383 41.2347 266.546 38.0756 268.871 36.0804C275.181 30.7598 282.987 30.7598 288.301 31.7574C292.121 32.2562 294.944 35.0828 295.442 38.907Z" fill="#FDA893"/>
<path d="M294.944 61.6858C294.778 62.0184 294.778 62.3509 294.612 62.6834C294.446 62.6834 294.28 62.6834 294.114 62.6834C292.951 62.5172 291.955 61.8521 291.955 61.8521C291.789 61.6858 291.789 61.3533 291.789 61.187C291.955 61.0207 292.287 61.0208 292.453 61.0208C292.453 61.0208 293.283 61.5196 294.114 61.6858C294.446 61.6858 294.612 61.6858 294.944 61.6858Z" fill="#FD896B"/>
<path d="M276.676 53.0398C276.676 53.0398 278.669 52.541 279.665 50.8783C279.665 50.8783 279.333 55.5338 275.513 55.5338L276.676 53.0398Z" fill="#FD896B"/>
<path d="M297.269 32.2562C300.258 28.9308 300.258 23.6102 295.608 22.7789C287.637 21.4487 283.153 19.9523 278.503 19.786C273.687 19.6198 271.362 25.1067 266.379 26.4368C261.397 27.767 258.408 36.4129 259.903 41.2347C260.069 41.8998 260.401 42.5649 260.567 43.23C262.726 49.5482 266.047 55.3676 270.033 60.6882C270.199 60.8545 270.365 61.0207 270.531 61.3533C270.863 61.6858 273.188 62.3509 275.68 58.3604C277.672 55.035 277.506 52.541 277.506 52.541C272.856 51.8759 269.203 46.0565 271.362 43.0637C271.362 43.0637 272.358 41.8998 273.521 41.8998C276.344 41.5673 278.503 43.23 279.167 45.0589C279.665 46.8879 280.163 48.0518 280.163 48.0518L282.821 48.218C282.821 48.218 281.492 43.7288 281.492 42.0661C281.492 40.4034 283.817 41.0685 283.485 37.9094C282.987 34.7502 280.33 34.4177 281.492 33.2538C282.655 32.0899 290.46 33.0876 292.785 34.2514C294.944 35.7479 297.269 32.2562 297.269 32.2562Z" fill="#20363C"/>
<path d="M277.673 48.7168C277.507 48.7168 277.34 48.7168 277.174 48.5505C276.012 46.2227 273.189 45.5577 273.189 45.5577C273.023 45.5577 272.857 45.3914 272.857 45.0589C272.857 44.8926 273.023 44.7263 273.355 44.7263C273.521 44.7263 276.676 45.3914 278.005 48.0517C278.005 48.3842 277.839 48.5505 277.673 48.7168Z" fill="#FD896B"/>
<path d="M274.683 47.8855H274.517C274.351 47.8855 274.185 47.553 274.351 47.3867C274.351 47.3867 274.683 46.5554 275.513 45.8903C275.68 45.724 276.012 45.8903 276.012 46.0566C276.178 46.2228 276.012 46.5554 275.846 46.5554C275.181 47.0542 274.849 47.7192 274.849 47.7192C275.015 47.7192 274.849 47.8855 274.683 47.8855Z" fill="#FD896B"/>
<path d="M293.449 44.3939C293.615 45.2252 293.283 46.0566 292.785 46.2228C292.287 46.3891 291.622 45.724 291.456 44.8927C291.29 44.0613 291.622 43.23 292.121 43.0637C292.619 42.8975 293.283 43.3963 293.449 44.3939Z" fill="#20363C"/>
<path d="M286.972 40.5697C286.972 40.5697 290.792 38.0756 294.28 38.907V40.7359C294.28 40.7359 289.463 41.2347 287.305 42.7312C286.972 42.0661 286.806 41.401 286.972 40.5697Z" fill="#20363C"/>
<path d="M295.774 43.895C295.774 43.895 298.598 49.0494 298.764 51.3771C298.93 52.7073 295.276 53.7049 295.276 53.7049L295.774 43.895Z" fill="#FDA893"/>
<path d="M295.774 55.5338C295.774 55.7001 295.774 55.7001 295.774 55.5338C295.608 57.0302 295.608 58.5267 295.276 59.8568C295.11 59.8568 295.11 59.8568 294.944 59.8568C291.623 60.0231 290.46 57.1965 290.128 55.7001L295.774 55.5338Z" fill="white"/>
<path d="M369.012 141.328C365.525 141.328 362.535 138.502 362.535 134.844C362.535 131.352 365.359 128.359 369.012 128.359C372.666 128.359 375.489 131.186 375.489 134.844C375.489 138.502 372.5 141.328 369.012 141.328ZM369.012 130.521C366.521 130.521 364.528 132.516 364.528 135.01C364.528 137.504 366.521 139.5 369.012 139.5C371.503 139.5 373.496 137.504 373.496 135.01C373.33 132.516 371.337 130.521 369.012 130.521Z" fill="#0172D0"/>
<path d="M392.262 164.107C388.775 164.107 385.786 161.281 385.786 157.623C385.786 154.131 388.609 151.138 392.262 151.138C395.916 151.138 398.739 153.965 398.739 157.623C398.739 161.114 395.75 164.107 392.262 164.107ZM392.262 153.134C389.771 153.134 387.778 155.129 387.778 157.623C387.778 160.117 389.771 162.112 392.262 162.112C394.753 162.112 396.746 160.117 396.746 157.623C396.746 155.129 394.587 153.134 392.262 153.134Z" fill="#FFAC00"/>
<path d="M400.234 185.057C399.735 185.057 399.237 184.558 399.237 184.06V179.57C399.237 179.072 399.735 178.573 400.234 178.573C400.732 178.573 401.23 179.072 401.23 179.57V184.06C401.23 184.558 400.732 185.057 400.234 185.057Z" fill="#0172D0"/>
<path d="M400.234 192.872C399.735 192.872 399.237 192.373 399.237 191.874V187.385C399.237 186.886 399.735 186.387 400.234 186.387C400.732 186.387 401.23 186.886 401.23 187.385V191.874C401.23 192.373 400.732 192.872 400.234 192.872Z" fill="#0172D0"/>
<path d="M406.378 186.72H402.393C401.895 186.72 401.396 186.221 401.396 185.722C401.396 185.223 401.895 184.725 402.393 184.725H406.378C406.877 184.725 407.375 185.223 407.375 185.722C407.375 186.221 407.043 186.72 406.378 186.72Z" fill="#0172D0"/>
<path d="M397.909 186.72H393.923C393.425 186.72 392.927 186.221 392.927 185.722C392.927 185.223 393.425 184.725 393.923 184.725H397.909C398.407 184.725 398.905 185.223 398.905 185.722C398.905 186.221 398.407 186.72 397.909 186.72Z" fill="#0172D0"/>
<path d="M364.528 159.951C364.03 159.951 363.532 159.452 363.532 158.953V154.464C363.532 153.965 364.03 153.466 364.528 153.466C365.027 153.466 365.525 153.965 365.525 154.464V158.953C365.525 159.618 365.027 159.951 364.528 159.951Z" fill="#FFAC00"/>
<path d="M364.528 167.765C364.03 167.765 363.532 167.266 363.532 166.768V162.278C363.532 161.779 364.03 161.281 364.528 161.281C365.027 161.281 365.525 161.779 365.525 162.278V166.768C365.525 167.433 365.027 167.765 364.528 167.765Z" fill="#FFAC00"/>
<path d="M370.839 161.613H366.853C366.355 161.613 365.857 161.114 365.857 160.616C365.857 160.117 366.355 159.618 366.853 159.618H370.839C371.337 159.618 371.836 160.117 371.836 160.616C371.836 161.281 371.337 161.613 370.839 161.613Z" fill="#FFAC00"/>
<path d="M362.369 161.613H358.384C357.885 161.613 357.387 161.114 357.387 160.616C357.387 160.117 357.885 159.618 358.384 159.618H362.369C362.868 159.618 363.366 160.117 363.366 160.616C363.366 161.281 362.868 161.613 362.369 161.613Z" fill="#FFAC00"/>
<path d="M130.2 49.7145C126.713 49.7145 123.724 46.8879 123.724 43.23C123.724 39.5721 126.547 36.7455 130.2 36.7455C133.854 36.7455 136.677 39.5721 136.677 43.23C136.677 46.8879 133.854 49.7145 130.2 49.7145ZM130.2 47.7192C132.692 47.7192 134.684 45.724 134.684 43.23C134.684 40.7359 132.692 38.7407 130.2 38.7407C127.709 38.7407 125.716 40.7359 125.716 43.23C125.883 45.724 127.875 47.7192 130.2 47.7192Z" fill="#0172D0"/>
<path d="M153.783 70.9968C150.295 70.9968 147.306 68.1702 147.306 64.5123C147.306 61.0207 150.129 58.0278 153.783 58.0278C157.27 58.0278 160.259 60.8544 160.259 64.5123C160.259 68.1702 157.27 70.9968 153.783 70.9968ZM153.783 69.0016C156.274 69.0016 158.266 67.0064 158.266 64.5123C158.266 62.0183 156.274 60.0231 153.783 60.0231C151.291 60.0231 149.299 62.0183 149.299 64.5123C149.299 67.0064 151.291 69.0016 153.783 69.0016Z" fill="#FFAC00"/>
<path d="M162.252 34.0851C162.252 33.5863 161.754 33.0875 161.256 33.0875H156.772C156.274 33.0875 155.775 33.5863 155.775 34.0851C155.775 34.5839 156.274 35.0828 156.772 35.0828H161.256C161.92 35.0828 162.252 34.5839 162.252 34.0851Z" fill="#0172D0"/>
<path d="M170.058 34.0851C170.058 33.5863 169.56 33.0875 169.061 33.0875H164.577C164.079 33.0875 163.581 33.5863 163.581 34.0851C163.581 34.5839 164.079 35.0828 164.577 35.0828H169.061C169.726 35.0828 170.058 34.5839 170.058 34.0851Z" fill="#0172D0"/>
<path d="M163.913 40.4034V36.4129C163.913 35.9141 163.415 35.4153 162.917 35.4153C162.418 35.4153 161.92 35.9141 161.92 36.4129V40.4034C161.92 40.9022 162.418 41.401 162.917 41.401C163.415 41.401 163.913 40.9022 163.913 40.4034Z" fill="#0172D0"/>
<path d="M163.913 31.7574V27.7669C163.913 27.2681 163.415 26.7693 162.917 26.7693C162.418 26.7693 161.92 27.2681 161.92 27.7669V31.7574C161.92 32.2562 162.418 32.755 162.917 32.755C163.415 32.755 163.913 32.4224 163.913 31.7574Z" fill="#0172D0"/>
<path d="M115.088 69.0016C115.088 68.5028 114.59 68.004 114.091 68.004H109.607C109.109 68.004 108.611 68.5028 108.611 69.0016C108.611 69.5004 109.109 69.9992 109.607 69.9992H114.091C114.59 69.9992 115.088 69.5004 115.088 69.0016Z" fill="#FFAC00"/>
<path d="M122.893 69.0016C122.893 68.5028 122.395 68.004 121.897 68.004H117.413C116.914 68.004 116.416 68.5028 116.416 69.0016C116.416 69.5004 116.914 69.9992 117.413 69.9992H121.897C122.395 69.9992 122.893 69.5004 122.893 69.0016Z" fill="#FFAC00"/>
<path d="M116.748 75.3199V71.3294C116.748 70.8306 116.25 70.3318 115.752 70.3318C115.254 70.3318 114.756 70.8306 114.756 71.3294V75.3199C114.756 75.8187 115.254 76.3175 115.752 76.3175C116.25 76.3175 116.748 75.8187 116.748 75.3199Z" fill="#FFAC00"/>
<path d="M116.748 66.6739V62.6834C116.748 62.1846 116.25 61.6858 115.752 61.6858C115.254 61.6858 114.756 62.1846 114.756 62.6834V66.6739C114.756 67.1727 115.254 67.6715 115.752 67.6715C116.25 67.8377 116.748 67.3389 116.748 66.6739Z" fill="#FFAC00"/>
<path d="M356.39 36.9117H343.271C336.794 36.9117 331.314 31.5911 331.314 24.9403V11.9714C331.314 5.48687 336.628 0 343.271 0H356.39C362.867 0 368.348 5.3206 368.348 11.9714V25.1066C368.182 31.5911 362.867 36.9117 356.39 36.9117Z" fill="#FFAC00"/>
<path d="M337.957 14.1329C337.957 10.8075 340.115 8.97852 342.939 8.97852C345.762 8.97852 347.921 10.8075 347.921 14.1329C347.921 17.4582 345.762 19.2872 342.939 19.2872C340.115 19.2872 337.957 17.4582 337.957 14.1329ZM353.9 9.14478H358.383L345.596 27.9332H341.112L353.9 9.14478ZM344.101 14.1329C344.101 12.3039 343.437 11.8051 342.939 11.8051C342.274 11.8051 341.776 12.3039 341.776 14.1329C341.776 15.9618 342.44 16.4606 342.939 16.4606C343.437 16.4606 344.101 15.7955 344.101 14.1329ZM351.574 22.9451C351.574 19.6197 353.733 17.7908 356.557 17.7908C359.38 17.7908 361.539 19.6197 361.539 22.9451C361.539 26.2705 359.38 28.0994 356.557 28.0994C353.733 28.0994 351.574 26.2705 351.574 22.9451ZM357.719 22.9451C357.719 21.1161 357.055 20.6173 356.557 20.6173C355.892 20.6173 355.394 21.1161 355.394 22.9451C355.394 24.7741 356.058 25.2729 356.557 25.2729C357.221 25.2729 357.719 24.7741 357.719 22.9451Z" fill="white"/>
<path d="M77.7216 189.38H64.602C58.1252 189.38 52.6448 184.06 52.6448 177.409V164.274C52.6448 157.789 57.9591 152.302 64.602 152.302H77.7216C84.1984 152.302 89.6788 157.623 89.6788 164.274V177.409C89.5128 184.06 84.1984 189.38 77.7216 189.38Z" fill="#FFAC00"/>
<path d="M73.2377 180.069V182.896H69.5841V180.235C67.093 180.069 64.6019 179.404 62.9412 178.406L64.9341 173.917C66.5948 174.915 68.9198 175.58 70.9127 175.58C72.5734 175.58 73.2377 175.247 73.2377 174.582C73.2377 172.255 63.2734 174.083 63.2734 167.433C63.2734 164.606 65.4323 162.112 69.5841 161.447V158.62H73.2377V161.281C75.0645 161.447 76.8913 161.946 78.3859 162.777L76.5591 167.1C74.7323 166.269 73.0716 165.77 71.577 165.77C69.7502 165.77 69.252 166.269 69.252 166.934C69.252 169.095 79.2163 167.266 79.2163 173.917C79.2163 176.91 77.2234 179.404 73.2377 180.069Z" fill="white"/>
</svg>
